<?xml version="1.0" encoding="UTF-8"?>
<svg width="70mm" height="30mm" version="1.1" viewBox="0 0 70 30" xmlns="http://www.w3.org/2000/svg" xmlns:cc="http://creativecommons.org/ns#" xmlns:dc="http://purl.org/dc/elements/1.1/" xmlns:rdf="http://www.w3.org/1999/02/22-rdf-syntax-ns#">
 <metadata>
  <rdf:RDF>
   <cc:Work rdf:about="">
    <dc:format>image/svg+xml</dc:format>
    <dc:type rdf:resource="http://purl.org/dc/dcmitype/StillImage"/>
    <dc:title/>
   </cc:Work>
  </rdf:RDF>
 </metadata>
 <g transform="translate(0,-267)">
  <g transform="matrix(.18134 .0020056 -.0020056 .18134 -5.622 231.47)" fill="#b08c00" aria-label="e">
   <path d="m155.54 277.62h-35.531q0.375 6.2344 3.7031 9.75 3.3281 3.4688 8.8594 3.4688 4.9219 0 8.2031-2.0625t5.7188-6.6562l8.5781 4.7812q-3.75 6.7031-9.2812 9.9844t-12.984 3.2812q-10.688 0-17.016-6.5156-6.3281-6.5156-6.3281-17.391 0-10.453 6.5156-17.156 6.5625-6.75 16.828-6.75 10.734 0 16.734 6.1406 6 6.1406 6 17.203zm-10.547-6.8438q-0.60937-4.7812-3.6562-7.2656-3.0469-2.5312-8.3438-2.5312-5.0156 0-8.0625 2.4375-3.0469 2.4375-4.2656 7.3594z" fill="#b08c00"/>
  </g>
  <g fill="none">
   <path d="m16.894 280.84v1.2565" stroke="#666" stroke-width="2.5606"/>
   <path d="m11.594 280.76v1.2565" stroke="#000" stroke-width="2.8569"/>
   <circle cx="17.579" cy="281.75" r="6.4951" stroke="#666" stroke-linecap="round" stroke-width="1.9161" style="paint-order:fill markers stroke"/>
  </g>
  <g transform="matrix(.098023 -.00014124 .00014124 .098023 16.015 254.95)" aria-label="Platforma">
   <path d="m121.93 267.55v30.797h-7.9688v-68.625h14.391q7.5469 0 11.109 0.79688 3.5625 0.79687 6.1875 2.625 3.2812 2.3438 5.1094 6.4219 1.875 4.0781 1.875 9.0469t-1.875 9.0469q-1.8281 4.0781-5.1094 6.4219-2.625 1.875-6.1875 2.6719-3.5156 0.79688-11.109 0.79688h-2.2969zm0-7.4062h4.125q10.5 0 14.109-2.4375 3.6562-2.4844 3.6562-8.625 0-6.5625-3.75-9.2344-3.7031-2.6719-14.016-2.6719h-4.125z"/>
   <path d="m162.34 298.34v-72.656h7.5v72.656z"/>
   <path d="m218.03 277.3q0-7.2656-3.9844-11.672-3.9375-4.4531-10.312-4.4531-6.6094 0-10.312 4.0781-3.7031 4.0781-3.7031 11.391 0 7.7812 3.7031 12 3.75 4.2188 10.594 4.2188 6.5625 0 10.266-4.0781 3.75-4.125 3.75-11.484zm7.125-21.844v42.891h-7.125v-7.7812q-2.5781 4.6875-6.6094 7.1719-3.9844 2.4375-8.9531 2.4375-9.2344 0-14.906-6.3281-5.625-6.375-5.625-16.828 0-10.594 5.4844-16.828 5.4844-6.2812 14.672-6.2812 5.3906 0 9.3281 2.4375 3.9844 2.3906 6.4219 7.1719v-8.0625z"/>
   <path d="m240.9 261.5h-7.875v-6.0469h7.875v-17.297h7.5v17.297h7.875v6.0469h-7.875v36.844h-7.5z"/>
   <path d="m266.64 298.34v-36.844h-8.25v-6.0469h8.25v-12.422q0-10.688 2.6719-14.438 2.7188-3.7969 9.7031-3.7969 1.7344 0 3.2812 0.23437 1.5938 0.23438 3.0469 0.75v7.5938q-1.4062-0.79687-2.8594-1.1719-1.4062-0.375-2.9062-0.375-3.2344 0-4.4531 2.0625t-1.2188 10.125v11.438h11.438v6.0469h-11.25v36.844z"/>
   <path d="m296.78 277.01q0 6.7969 4.5469 11.531 4.5469 4.6875 11.016 4.6875 6.4219 0 10.922-4.6875 4.5-4.7344 4.5-11.531 0-6.7969-4.5-11.484-4.5-4.7344-10.922-4.7344-6.5156 0-11.062 4.7344-4.5 4.6875-4.5 11.484zm-7.7812 0q0-4.7344 1.7344-8.9062 1.7344-4.2188 5.0625-7.5 3.3281-3.2812 7.5469-4.9688 4.2188-1.7344 9-1.7344 4.6875 0 8.8594 1.7344 4.2188 1.7344 7.6406 5.0625 3.3281 3.2344 5.0625 7.4531 1.7344 4.1719 1.7344 8.8594t-1.7344 8.8594q-1.7344 4.125-5.0625 7.3594-3.4219 3.375-7.6875 5.1562-4.2188 1.7812-8.8125 1.7812-4.7344 0-9-1.7812-4.2188-1.7344-7.5469-5.0156-3.3281-3.375-5.0625-7.5-1.7344-4.125-1.7344-8.8594z"/>
   <path d="m347.12 298.34v-42.891h6.5156v8.9062q2.9531-5.5781 6.2812-7.9688 3.3281-2.3906 8.1094-2.3906 1.3125 0 2.5312 0.23438 1.2188 0.1875 2.4375 0.60937l-2.4375 6.6094q-1.2656-0.42188-2.3906-0.60938-1.125-0.23437-2.1562-0.23437-5.8125 0-8.7188 4.2188-2.9062 4.1719-2.9062 12.609v20.906z"/>
   <path d="m440.5 298.34v-25.266q0-6.5156-2.625-9.6562-2.625-3.1875-8.0625-3.1875-2.9531 0-5.4844 1.2188-2.4844 1.1719-4.2188 3.375-1.2656 1.6875-1.8281 3.9375t-0.5625 7.4062v22.172h-7.0781v-25.266q0-6.5156-2.625-9.6562-2.625-3.1875-8.0625-3.1875-2.9531 0-5.5312 1.2188-2.5312 1.1719-4.2656 3.375-1.2188 1.6406-1.7812 3.7969-0.51562 2.1562-0.51562 7.5469v22.172h-7.0781v-42.891h7.1719v6.6094q2.6719-4.125 6.375-6.1406 3.7031-2.0156 8.5312-2.0156 5.2031 0 8.8594 2.25 3.6562 2.2031 5.5312 6.4688 2.7656-4.4062 6.5156-6.5625 3.7969-2.1562 8.7656-2.1562 7.1719 0 11.203 4.0312t4.0312 11.203v29.203z"/>
   <path d="m494.96 277.3q0-7.2656-3.9844-11.672-3.9375-4.4531-10.312-4.4531-6.6094 0-10.312 4.0781-3.7031 4.0781-3.7031 11.391 0 7.7812 3.7031 12 3.75 4.2188 10.594 4.2188 6.5625 0 10.266-4.0781 3.75-4.125 3.75-11.484zm7.125-21.844v42.891h-7.125v-7.7812q-2.5781 4.6875-6.6094 7.1719-3.9844 2.4375-8.9531 2.4375-9.2344 0-14.906-6.3281-5.625-6.375-5.625-16.828 0-10.594 5.4844-16.828 5.4844-6.2812 14.672-6.2812 5.3906 0 9.3281 2.4375 3.9844 2.3906 6.4219 7.1719v-8.0625z"/>
  </g>
  <g transform="matrix(.044782 -.00044313 .00044313 .044782 21.713 275.06)" aria-label="Archeologiczna">
   <path d="m101.21 298.34 40.406-71.344 21.984 71.344h-9.1406l-4.5938-17.297h-29.953l-9.3281 17.297zm22.359-24.375h24.469l-8.25-27.375z"/>
   <path d="m195.86 262.44q-1.2188-0.60937-2.4844-0.9375-1.2656-0.32812-2.5312-0.32812-4.9219 0-7.8281 4.125-2.8594 4.125-4.0312 12.797l-2.7188 20.25h-7.2656l5.625-42.891h7.4062l-1.1719 6.7969q2.9531-4.3594 5.9531-6.3281 3.0469-2.0156 6.6562-2.0156 1.0312 0 2.1094 0.23438 1.125 0.23437 2.2031 0.70312z"/>
   <path d="m239.21 266.56q-3.3281-3.375-6.8438-4.9219-3.4688-1.5938-7.5469-1.5938-7.5 0-12.234 5.25-4.7344 5.25-4.7344 13.641 0 6.75 4.0781 10.875 4.125 4.125 10.875 4.125 3.2812 0 6.4219-1.3125 3.1406-1.3125 6.9375-4.3594l-1.1719 8.0625q-2.5312 1.875-6.0469 2.8594-3.4688 0.98438-7.5469 0.98438-9.4688 0-15.328-5.8594-5.8125-5.9062-5.8125-15.469 0-10.969 6.9375-17.953 6.9844-6.9844 18.094-6.9844 4.0312 0 7.6875 1.0781 3.7031 1.0781 7.3125 3.3281z"/>
   <path d="m245.87 298.34 9.5625-72.656h7.4062l-5.1094 36.75q3.2812-4.2656 7.2656-6.375 4.0312-2.1562 8.8125-2.1562 6.1406 0 9.7031 3.375 3.6094 3.375 3.6094 9.1875 0 1.0312-0.0937 2.25t-0.28125 2.5312l-3.5625 27.094h-7.5l3.375-26.297q0.0469-0.32813 0.0937-0.89063 0.28125-2.2969 0.28125-3.0469 0-3.8438-2.3438-5.8594-2.3438-2.0156-6.8438-2.0156-5.9062 0-9.5156 4.2188-3.6094 4.1719-4.6875 12.188l-2.9062 21.703z"/>
   <path d="m338.68 278.14-34.359 0.0469v0.75q0 6.8906 3.5156 10.875 3.5156 3.9375 9.6094 3.9375 3.7969 0 6.9844-1.8281 3.1875-1.8281 6.1875-5.6719l5.1562 4.2188q-3.75 4.875-8.25 7.3125-4.5 2.3906-9.7969 2.3906-9.6094 0-15.281-5.7656-5.625-5.8125-5.625-15.656 0-10.734 6.5625-17.766 6.5625-7.0781 16.453-7.0781 9 0 13.969 5.4844 4.9688 5.4844 4.9688 15.422 0 1.3594-0.0469 2.0625 0 0.70313-0.0469 1.2656zm-7.125-6.0938q-0.0937-5.8125-3.1875-8.9531-3.0469-3.1406-8.625-3.1406-5.5312 0-9.5625 3.2812-3.9844 3.2812-5.2031 8.8125z"/>
   <path d="m369.39 259.95q-7.0781 0-11.719 5.25-4.5938 5.2031-4.5938 13.266 0 7.0781 3.9844 11.438 4.0312 4.3125 10.594 4.3125 7.0312 0 11.625-5.2031 4.5938-5.2031 4.5938-13.219 0-6.9375-4.0781-11.391-4.0312-4.4531-10.406-4.4531zm-23.812 18.703q0-10.547 6.9375-17.625 6.9375-7.125 17.25-7.125 9.3281 0 15.422 5.9062 6.0938 5.8594 6.0938 14.625 0 11.438-6.75 18.609-6.7031 7.125-17.344 7.125-9.7969 0-15.703-5.9062t-5.9062-15.609z"/>
   <path d="m407.36 298.34h-7.5469l9.5625-72.656h7.5z"/>
   <path d="m445.51 259.95q-7.0781 0-11.719 5.25-4.5938 5.2031-4.5938 13.266 0 7.0781 3.9844 11.438 4.0312 4.3125 10.594 4.3125 7.0312 0 11.625-5.2031 4.5938-5.2031 4.5938-13.219 0-6.9375-4.0781-11.391-4.0312-4.4531-10.406-4.4531zm-23.812 18.703q0-10.547 6.9375-17.625 6.9375-7.125 17.25-7.125 9.3281 0 15.422 5.9062 6.0938 5.8594 6.0938 14.625 0 11.438-6.75 18.609-6.7031 7.125-17.344 7.125-9.7969 0-15.703-5.9062t-5.9062-15.609z"/>
   <path d="m496.28 292.67q6.2344 0 10.594-5.1562 4.3594-5.1562 4.3594-12.797 0-6.4688-3.4219-10.406-3.375-3.9844-8.8594-3.9844-7.125 0-11.672 4.9688-4.5469 4.9688-4.5469 12.703 0 6.5156 3.75 10.594 3.7969 4.0781 9.7969 4.0781zm17.766-37.219h7.3594l-4.3125 34.078q-0.14062 1.0312-0.375 2.9531-1.5469 12.75-4.3125 17.297-2.9062 4.8281-7.4062 6.9844-4.4531 2.2031-11.625 2.2031-8.5781 0-13.781-4.7344-5.1562-4.7344-5.2969-12.703l7.3594-0.98437q0.1875 5.9062 3.6562 9.0938 3.5156 3.1875 9.7969 3.1875 5.6719 0 9.1406-3.9375 3.5156-3.8906 4.3125-11.109l0.75-6.5625q-3.0938 4.1719-6.9375 6.1875-3.7969 2.0156-8.6719 2.0156-8.1094 0-13.359-5.8594-5.2031-5.9062-5.2031-15.094 0-10.594 6.2812-17.578 6.3281-6.9844 15.797-6.9844 5.7188 0 9.6562 2.5312 3.9375 2.4844 6 7.4531z"/>
   <path d="m536.54 235.15q0-2.0625 1.5-3.5625 1.5469-1.5 3.6562-1.5 2.1562 0 3.6094 1.5 1.5 1.4531 1.5 3.5625 0 2.2031-1.5 3.7031-1.4531 1.5-3.6094 1.5-2.1094 0-3.6562-1.5-1.5-1.5469-1.5-3.7031zm-6.1406 63.188 5.6719-42.891h7.4531l-5.6719 42.891z"/>
   <path d="m591.15 266.56q-3.3281-3.375-6.8438-4.9219-3.4688-1.5938-7.5469-1.5938-7.5 0-12.234 5.25-4.7344 5.25-4.7344 13.641 0 6.75 4.0781 10.875 4.125 4.125 10.875 4.125 3.2812 0 6.4219-1.3125 3.1406-1.3125 6.9375-4.3594l-1.1719 8.0625q-2.5312 1.875-6.0469 2.8594-3.4688 0.98438-7.5469 0.98438-9.4688 0-15.328-5.8594-5.8125-5.9062-5.8125-15.469 0-10.969 6.9375-17.953 6.9844-6.9844 18.094-6.9844 4.0312 0 7.6875 1.0781 3.7031 1.0781 7.3125 3.3281z"/>
   <path d="m593.54 298.34 27.75-36.656h-22.078l0.89063-6.2344h33.703l-26.906 36.281h22.172l-0.84375 6.6094z"/>
   <path d="m639.25 298.34 5.625-42.891h7.125l-0.98437 6.9844q3.6094-4.3594 7.5469-6.4219 3.9375-2.1094 8.625-2.1094 6.1406 0 9.7031 3.375 3.6094 3.375 3.6094 9.1875 0 1.0312-0.0937 2.25t-0.28125 2.5312l-3.5625 27.094h-7.5l3.375-26.297q0.0469-0.32813 0.0937-0.89063 0.28125-2.2969 0.28125-3.0469 0-3.8438-2.3438-5.8594-2.3438-2.0156-6.8438-2.0156-5.9062 0-9.5156 4.2188-3.6094 4.1719-4.6875 12.188l-2.9062 21.703z"/>
   <path d="m711.9 293.23q6.2812 0 10.594-5.2031 4.3594-5.2031 4.3594-12.938 0-6.5156-3.4219-10.547-3.375-4.0312-8.8594-4.0312-7.125 0-11.672 5.0625-4.5469 5.0625-4.5469 12.891 0 6.6094 3.75 10.688 3.7969 4.0781 9.7969 4.0781zm17.766-37.781h7.3594l-5.625 42.891h-7.5l1.0312-6.4219q-3.0938 4.1719-6.9375 6.1875-3.7969 1.9688-8.6719 1.9688-8.25 0-13.406-6t-5.1562-15.609q0-10.641 6.2812-17.578 6.2812-6.9844 15.797-6.9844 5.7188 0 9.6094 2.5312 3.8906 2.5312 6.0469 7.6406z"/>
  </g>
  <g fill="#fff" stroke="#fff" stroke-width="2.5606">
   <path d="m18.152 275.24h-1.2565"/>
   <path d="m18.07 288.14h-1.2565"/>
   <path d="m24.053 280.96 0.02095 1.2564"/>
   <path d="m21.465 276.18 0.90321 0.87355"/>
   <path d="m13.369 276.35-0.90321 0.87355"/>
   <path d="m22.822 285.86-0.90322 0.87355"/>
   <path d="m12.185 285.68 0.90321 0.87355"/>
  </g>
  <path d="m13.088 281.4h-8.2298" fill="none" stroke="#666" stroke-width="1.9642"/>
 </g>
</svg>
