<?xml version="1.0" encoding="UTF-8" standalone="no"?>
<svg
   xmlns:dc="http://purl.org/dc/elements/1.1/"
   xmlns:cc="http://creativecommons.org/ns#"
   xmlns:rdf="http://www.w3.org/1999/02/22-rdf-syntax-ns#"
   xmlns:svg="http://www.w3.org/2000/svg"
   xmlns="http://www.w3.org/2000/svg"
   id="svg2013"
   version="1.1"
   viewBox="0 0 67 22"
   height="22mm"
   width="67mm">
  <defs
     id="defs2007" />
  <metadata
     id="metadata2010">
    <rdf:RDF>
      <cc:Work
         rdf:about="">
        <dc:format>image/svg+xml</dc:format>
        <dc:type
           rdf:resource="http://purl.org/dc/dcmitype/StillImage" />
        <dc:title></dc:title>
      </cc:Work>
    </rdf:RDF>
  </metadata>
  <g
     transform="translate(0,-275)"
     id="layer1">
    <g
       transform="matrix(0.25772914,0,0,0.25772914,44.682685,161.95224)"
       id="g1115">
      <g
         id="flowRoot815-15-7-7-8-2-5"
         style="font-style:normal;font-variant:normal;font-weight:normal;font-stretch:normal;font-size:12px;line-height:30.34005356px;font-family:Darleston;-inkscape-font-specification:Darleston;letter-spacing:0px;word-spacing:0px;fill:#ffd530;fill-opacity:1;stroke:none"
         transform="matrix(0.72263081,0.00799215,-0.00799215,0.72263081,-203.82443,281.6819)"
         aria-label="e">
        <path
           id="path883"
           style="font-style:normal;font-variant:normal;font-weight:normal;font-stretch:normal;font-size:96px;font-family:'Futura Md BT';-inkscape-font-specification:'Futura Md BT';fill:#ffd530;fill-opacity:1"
           d="m 155.54297,277.62315 h -35.53125 q 0.375,6.23438 3.70312,9.75 3.32813,3.46875 8.85938,3.46875 4.92187,0 8.20312,-2.0625 3.28125,-2.0625 5.71875,-6.65625 l 8.57813,4.78125 q -3.75,6.70313 -9.28125,9.98438 -5.53125,3.28125 -12.98438,3.28125 -10.6875,0 -17.01562,-6.51563 -6.32813,-6.51562 -6.32813,-17.39062 0,-10.45313 6.51563,-17.15625 6.5625,-6.75 16.82812,-6.75 10.73438,0 16.73438,6.14062 6,6.14063 6,17.20313 z m -10.54688,-6.84375 q -0.60937,-4.78125 -3.65625,-7.26562 -3.04687,-2.53125 -8.34375,-2.53125 -5.01562,0 -8.0625,2.4375 -3.04687,2.4375 -4.26562,7.35937 z" />
      </g>
      <path
         id="path1209-2-7-7"
         d="m -118.91078,478.30219 -0.43414,5.08015 h 10.20368 v -5.00779 z"
         style="color:#000000;font-style:normal;font-variant:normal;font-weight:normal;font-stretch:normal;font-size:medium;line-height:normal;font-family:sans-serif;font-variant-ligatures:normal;font-variant-position:normal;font-variant-caps:normal;font-variant-numeric:normal;font-variant-alternates:normal;font-feature-settings:normal;text-indent:0;text-align:start;text-decoration:none;text-decoration-line:none;text-decoration-style:solid;text-decoration-color:#000000;letter-spacing:normal;word-spacing:normal;text-transform:none;writing-mode:lr-tb;direction:ltr;text-orientation:mixed;dominant-baseline:auto;baseline-shift:baseline;text-anchor:start;white-space:normal;shape-padding:0;clip-rule:nonzero;display:inline;overflow:visible;visibility:visible;opacity:1;isolation:auto;mix-blend-mode:normal;color-interpolation:sRGB;color-interpolation-filters:linearRGB;solid-color:#000000;solid-opacity:1;vector-effect:none;fill:#666666;fill-opacity:1;fill-rule:nonzero;stroke:none;stroke-width:10.20377445;stroke-linecap:butt;stroke-linejoin:miter;stroke-miterlimit:4;stroke-dasharray:none;stroke-dashoffset:0;stroke-opacity:1;color-rendering:auto;image-rendering:auto;shape-rendering:auto;text-rendering:auto;enable-background:accumulate" />
      <path
         id="path1209-0-9-5-0"
         d="m -134.20558,478.11345 v 5.00729"
         style="fill:none;stroke:#000000;stroke-width:11.38476562;stroke-linecap:butt;stroke-linejoin:miter;stroke-miterlimit:4;stroke-dasharray:none;stroke-opacity:1" />
      <circle
         r="25.882952"
         cy="482.01987"
         cx="-110.35692"
         id="path1232-0-9-3"
         style="opacity:1;fill:none;fill-opacity:1;fill-rule:nonzero;stroke:#666666;stroke-width:7.63569784;stroke-linecap:round;stroke-linejoin:miter;stroke-miterlimit:4;stroke-dasharray:none;stroke-dashoffset:0;stroke-opacity:1;paint-order:fill markers stroke" />
      <g
         id="flowRoot815-1-7-8-6-1-7-1"
         style="font-style:normal;font-variant:normal;font-weight:normal;font-stretch:normal;font-size:12px;line-height:30.34005356px;font-family:'Square721 BT';-inkscape-font-specification:'Square721 BT';letter-spacing:0px;word-spacing:0px;fill:#000000;fill-opacity:1;stroke:none"
         transform="matrix(0.35229931,-5.0760834e-4,5.0760834e-4,0.35229931,-112.2083,384.42918)"
         aria-label="Platforma">
        <path
           id="path864"
           style="font-style:normal;font-variant:normal;font-weight:normal;font-stretch:normal;font-size:96px;font-family:'Futura Md BT';-inkscape-font-specification:'Futura Md BT';fill:#000000"
           d="m 124.74609,258.4044 h 2.85938 q 9.28125,0 12.375,-2.01562 3.09375,-2.01563 3.09375,-7.125 0,-5.48438 -3.32813,-7.73438 -3.28125,-2.25 -12.14062,-2.25 h -2.85938 z m -0.70312,9.14063 v 30.79687 h -10.45313 v -68.625 h 16.875 q 7.5,0 11.01563,0.84375 3.5625,0.79688 6.1875,2.67188 3.23437,2.39062 5.0625,6.46875 1.82812,4.03125 1.82812,8.90625 0,4.875 -1.82812,9 -1.82813,4.125 -5.0625,6.46875 -2.625,1.875 -6.1875,2.67187 -3.51563,0.79688 -11.01563,0.79688 h -2.20312 z" />
        <path
           id="path866"
           style="font-style:normal;font-variant:normal;font-weight:normal;font-stretch:normal;font-size:96px;font-family:'Futura Md BT';-inkscape-font-specification:'Futura Md BT';fill:#000000"
           d="m 164.40234,298.3419 v -72.65625 h 10.17188 v 72.65625 z" />
        <path
           id="path868"
           style="font-style:normal;font-variant:normal;font-weight:normal;font-stretch:normal;font-size:96px;font-family:'Futura Md BT';-inkscape-font-specification:'Futura Md BT';fill:#000000"
           d="m 230.87109,298.3419 h -10.17187 v -5.76562 q -2.71875,3.84375 -6.375,5.71875 -3.60938,1.875 -8.29688,1.875 -9.42187,0 -14.85937,-6.42188 -5.39063,-6.46875 -5.39063,-17.67187 0,-10.64063 5.53125,-17.15625 5.53125,-6.5625 14.4375,-6.5625 5.4375,0 9.28125,2.29687 3.89063,2.25 5.67188,6.51563 v -7.26563 h 10.17187 z m -9.89062,-22.35937 q 0,-6.89063 -3.23438,-10.73438 -3.1875,-3.84375 -8.95312,-3.84375 -5.76563,0 -9.09375,3.98438 -3.28125,3.9375 -3.28125,10.96875 0,7.07812 3.1875,10.92187 3.1875,3.84375 9,3.84375 5.48437,0 8.90625,-4.17187 3.46875,-4.17188 3.46875,-10.96875 z" />
        <path
           id="path870"
           style="font-style:normal;font-variant:normal;font-weight:normal;font-stretch:normal;font-size:96px;font-family:'Futura Md BT';-inkscape-font-specification:'Futura Md BT';fill:#000000"
           d="m 247.32422,298.3419 v -35.53125 h -7.78125 v -8.90625 h 7.78125 v -16.82812 h 10.17187 v 16.82812 h 7.78125 v 8.90625 h -7.78125 v 35.53125 z" />
        <path
           id="path872"
           style="font-style:normal;font-variant:normal;font-weight:normal;font-stretch:normal;font-size:96px;font-family:'Futura Md BT';-inkscape-font-specification:'Futura Md BT';fill:#000000"
           d="m 275.40234,298.3419 v -35.53125 h -7.78125 v -8.90625 h 7.78125 v -11.90625 q 0,-8.85937 3.65625,-13.07812 3.70313,-4.21875 11.4375,-4.21875 1.64063,0 3.375,0.23437 1.73438,0.23438 3.51563,0.75 v 9.1875 q -1.21875,-0.70312 -2.48438,-1.03125 -1.21875,-0.375 -2.48437,-0.375 -3.65625,0 -5.25,2.25 -1.59375,2.25 -1.59375,7.59375 v 10.59375 h 10.6875 v 8.90625 h -10.6875 v 35.53125 z" />
        <path
           id="path874"
           style="font-style:normal;font-variant:normal;font-weight:normal;font-stretch:normal;font-size:96px;font-family:'Futura Md BT';-inkscape-font-specification:'Futura Md BT';fill:#000000"
           d="m 338.35547,276.26378 q 0,-6.1875 -3.98438,-10.45313 -3.98437,-4.3125 -9.75,-4.3125 -5.71875,0 -9.75,4.3125 -3.98437,4.26563 -3.98437,10.45313 0,6.1875 3.98437,10.5 4.03125,4.26562 9.75,4.26562 5.71875,0 9.70313,-4.26562 4.03125,-4.3125 4.03125,-10.5 z m -38.20313,-0.0937 q 0,-4.875 1.82813,-9.1875 1.875,-4.35938 5.34375,-7.73438 3.42187,-3.32812 7.875,-5.10937 4.45312,-1.78125 9.32812,-1.78125 5.01563,0 9.42188,1.78125 4.45312,1.78125 7.96875,5.25 3.51562,3.42187 5.34375,7.73437 1.82812,4.3125 1.82812,9.04688 0,4.92187 -1.82812,9.23437 -1.78125,4.3125 -5.25,7.64063 -3.65625,3.51562 -8.10938,5.29687 -4.45312,1.82813 -9.375,1.82813 -4.82812,0 -9.28125,-1.82813 -4.45312,-1.78125 -7.92187,-5.20312 -3.51563,-3.46875 -5.34375,-7.78125 -1.82813,-4.3125 -1.82813,-9.1875 z" />
        <path
           id="path876"
           style="font-style:normal;font-variant:normal;font-weight:normal;font-stretch:normal;font-size:96px;font-family:'Futura Md BT';-inkscape-font-specification:'Futura Md BT';fill:#000000"
           d="m 370.04297,260.98253 q 1.64062,-4.40625 4.3125,-6.51563 2.71875,-2.10937 6.70312,-2.10937 2.15625,0 4.21875,0.51562 2.10938,0.51563 4.125,1.5 l -3.65625,8.625 q -1.3125,-0.9375 -2.85937,-1.35937 -1.5,-0.46875 -3.375,-0.46875 -5.0625,0 -7.26563,4.07812 -2.20312,4.03125 -2.20312,13.59375 v 19.5 h -10.17188 v -44.53125 h 10.17188 z" />
        <path
           id="path878"
           style="font-style:normal;font-variant:normal;font-weight:normal;font-stretch:normal;font-size:96px;font-family:'Futura Md BT';-inkscape-font-specification:'Futura Md BT';fill:#000000"
           d="m 405.48047,298.3419 h -10.17188 v -44.4375 h 9.5625 v 7.26563 q 3.04688,-4.64063 6.89063,-6.75 3.89062,-2.15625 9.14062,-2.15625 5.20313,0 8.625,2.20312 3.42188,2.15625 5.20313,6.60938 3.51562,-4.59375 7.45312,-6.70313 3.98438,-2.10937 9.04688,-2.10937 4.40625,0 7.6875,1.64062 3.28125,1.59375 5.10937,4.6875 0.84375,1.45313 1.21875,3.46875 0.42188,2.01563 0.42188,5.76563 v 3.5625 26.95312 h -10.17188 v -22.82812 q 0,-8.95313 -1.92187,-11.76563 -1.875,-2.85937 -6.75,-2.85937 -6,0 -8.57813,3.84375 -2.53125,3.79687 -2.53125,13.35937 v 20.25 h -10.26562 v -22.82812 q 0,-8.25 -2.01563,-11.4375 -1.96875,-3.1875 -6.84375,-3.1875 -3,0 -5.48437,1.35937 -2.48438,1.35938 -3.9375,3.75 -0.9375,1.54688 -1.3125,3.79688 -0.375,2.25 -0.375,8.29687 z" />
        <path
           id="path880"
           style="font-style:normal;font-variant:normal;font-weight:normal;font-stretch:normal;font-size:96px;font-family:'Futura Md BT';-inkscape-font-specification:'Futura Md BT';fill:#000000"
           d="m 521.12109,298.3419 h -10.17187 v -5.76562 q -2.71875,3.84375 -6.375,5.71875 -3.60938,1.875 -8.29688,1.875 -9.42187,0 -14.85937,-6.42188 -5.39063,-6.46875 -5.39063,-17.67187 0,-10.64063 5.53125,-17.15625 5.53125,-6.5625 14.4375,-6.5625 5.4375,0 9.28125,2.29687 3.89063,2.25 5.67188,6.51563 v -7.26563 h 10.17187 z m -9.89062,-22.35937 q 0,-6.89063 -3.23438,-10.73438 -3.1875,-3.84375 -8.95312,-3.84375 -5.76563,0 -9.09375,3.98438 -3.28125,3.9375 -3.28125,10.96875 0,7.07812 3.1875,10.92187 3.1875,3.84375 9,3.84375 5.48437,0 8.90625,-4.17187 3.46875,-4.17188 3.46875,-10.96875 z" />
      </g>
      <g
         id="flowRoot815-1-8-9-8-4-4-9-8"
         style="font-style:italic;font-variant:normal;font-weight:normal;font-stretch:normal;font-size:12px;line-height:30.34005356px;font-family:'Futura Bk BT';-inkscape-font-specification:'Futura Bk BT Italic';letter-spacing:0px;word-spacing:0px;fill:#666666;fill-opacity:1;stroke:none"
         transform="matrix(0.17845735,-0.00176588,0.00176588,0.17845735,-94.461131,453.65025)"
         aria-label="Archeologiczna">
        <path
           id="path835"
           style="font-style:normal;font-variant:normal;font-weight:normal;font-stretch:normal;font-size:96px;font-family:'Futura Bk BT';-inkscape-font-specification:'Futura Bk BT';fill:#666666;fill-opacity:1"
           d="m 135.66797,245.04503 -10.92188,25.26562 h 21.84375 z m 0,-18.04688 31.21875,71.34375 h -8.85938 l -8.90625,-21.04687 h -26.8125 l -8.90625,21.04687 h -8.85937 z" />
        <path
           id="path837"
           style="font-style:normal;font-variant:normal;font-weight:normal;font-stretch:normal;font-size:96px;font-family:'Futura Bk BT';-inkscape-font-specification:'Futura Bk BT';fill:#666666;fill-opacity:1"
           d="m 173.30859,298.3419 v -42.89062 h 6.51563 v 8.90625 q 2.95312,-5.57813 6.28125,-7.96875 3.32812,-2.39063 8.10937,-2.39063 1.3125,0 2.53125,0.23438 1.21875,0.1875 2.4375,0.60937 l -2.4375,6.60938 q -1.26562,-0.42188 -2.39062,-0.60938 -1.125,-0.23437 -2.15625,-0.23437 -5.8125,0 -8.71875,4.21875 -2.90625,4.17187 -2.90625,12.60937 v 20.90625 z" />
        <path
           id="path839"
           style="font-style:normal;font-variant:normal;font-weight:normal;font-stretch:normal;font-size:96px;font-family:'Futura Bk BT';-inkscape-font-specification:'Futura Bk BT';fill:#666666;fill-opacity:1"
           d="m 239.87109,288.17003 v 8.53125 q -2.90625,1.73437 -6.5625,2.57812 -3.60937,0.89063 -7.82812,0.89063 -9.9375,0 -16.03125,-6.28125 -6.04688,-6.32813 -6.04688,-16.59375 0,-10.3125 6.28125,-16.82813 6.28125,-6.5625 16.07813,-6.5625 3.5625,0 6.9375,0.75 3.42187,0.75 6.42187,2.20313 v 7.875 q -2.8125,-1.82813 -5.8125,-2.76563 -3,-0.98437 -6.09375,-0.98437 -7.21875,0 -11.57812,4.54687 -4.35938,4.5 -4.35938,12 0,6.60938 4.35938,11.0625 4.40625,4.45313 11.01562,4.45313 3.32813,0 6.51563,-1.17188 3.1875,-1.17187 6.70312,-3.70312 z" />
        <path
           id="path841"
           style="font-style:normal;font-variant:normal;font-weight:normal;font-stretch:normal;font-size:96px;font-family:'Futura Bk BT';-inkscape-font-specification:'Futura Bk BT';fill:#666666;fill-opacity:1"
           d="m 250.08984,298.3419 v -72.65625 h 7.17188 v 36.375 q 2.76562,-4.125 6.65625,-6.14062 3.89062,-2.01563 9,-2.01563 7.59375,0 11.85937,4.03125 4.26563,4.03125 4.26563,11.20313 v 29.20312 h -7.5 v -25.26562 q 0,-6.51563 -2.76563,-9.65625 -2.71875,-3.1875 -8.4375,-3.1875 -3.28125,0 -6,1.21875 -2.67187,1.17187 -4.45312,3.375 -1.35938,1.6875 -1.96875,3.84375 -0.5625,2.15625 -0.5625,7.5 v 22.17187 z" />
        <path
           id="path843"
           style="font-style:normal;font-variant:normal;font-weight:normal;font-stretch:normal;font-size:96px;font-family:'Futura Bk BT';-inkscape-font-specification:'Futura Bk BT';fill:#666666;fill-opacity:1"
           d="m 333.94922,272.04503 q -0.375,-5.67188 -3.79688,-8.71875 -3.375,-3.09375 -9.28125,-3.09375 -5.34375,0 -8.90625,3.23437 -3.5625,3.1875 -4.125,8.57813 z m 7.875,5.95312 h -33.98438 v 0.65625 q 0,6.89063 3.9375,11.15625 3.9375,4.21875 10.26563,4.21875 4.3125,0 7.78125,-2.29687 3.46875,-2.34375 6.14062,-7.03125 l 5.57813,3.75 q -3.23438,5.8125 -8.25,8.76562 -5.01563,2.95313 -11.625,2.95313 -9.79688,0 -15.84375,-6.46875 -6.04688,-6.46875 -6.04688,-16.96875 0,-10.07813 6,-16.5 6,-6.42188 15.42188,-6.42188 9.51562,0 15.04687,6.09375 5.57813,6.09375 5.57813,16.64063 z" />
        <path
           id="path845"
           style="font-style:normal;font-variant:normal;font-weight:normal;font-stretch:normal;font-size:96px;font-family:'Futura Bk BT';-inkscape-font-specification:'Futura Bk BT';fill:#666666;fill-opacity:1"
           d="m 357.15234,277.01378 q 0,6.79687 4.54688,11.53125 4.54687,4.6875 11.01562,4.6875 6.42188,0 10.92188,-4.6875 4.5,-4.73438 4.5,-11.53125 0,-6.79688 -4.5,-11.48438 -4.5,-4.73437 -10.92188,-4.73437 -6.51562,0 -11.0625,4.73437 -4.5,4.6875 -4.5,11.48438 z m -7.78125,0 q 0,-4.73438 1.73438,-8.90625 1.73437,-4.21875 5.0625,-7.5 3.32812,-3.28125 7.54687,-4.96875 4.21875,-1.73438 9,-1.73438 4.6875,0 8.85938,1.73438 4.21875,1.73437 7.64062,5.0625 3.32813,3.23437 5.0625,7.45312 1.73438,4.17188 1.73438,8.85938 0,4.6875 -1.73438,8.85937 -1.73437,4.125 -5.0625,7.35938 -3.42187,3.375 -7.6875,5.15625 -4.21875,1.78125 -8.8125,1.78125 -4.73437,0 -9,-1.78125 -4.21875,-1.73438 -7.54687,-5.01563 -3.32813,-3.375 -5.0625,-7.5 -1.73438,-4.125 -1.73438,-8.85937 z" />
        <path
           id="path847"
           style="font-style:normal;font-variant:normal;font-weight:normal;font-stretch:normal;font-size:96px;font-family:'Futura Bk BT';-inkscape-font-specification:'Futura Bk BT';fill:#666666;fill-opacity:1"
           d="m 407.77734,298.3419 v -72.65625 h 7.5 v 72.65625 z" />
        <path
           id="path849"
           style="font-style:normal;font-variant:normal;font-weight:normal;font-stretch:normal;font-size:96px;font-family:'Futura Bk BT';-inkscape-font-specification:'Futura Bk BT';fill:#666666;fill-opacity:1"
           d="m 434.96484,277.01378 q 0,6.79687 4.54688,11.53125 4.54687,4.6875 11.01562,4.6875 6.42188,0 10.92188,-4.6875 4.5,-4.73438 4.5,-11.53125 0,-6.79688 -4.5,-11.48438 -4.5,-4.73437 -10.92188,-4.73437 -6.51562,0 -11.0625,4.73437 -4.5,4.6875 -4.5,11.48438 z m -7.78125,0 q 0,-4.73438 1.73438,-8.90625 1.73437,-4.21875 5.0625,-7.5 3.32812,-3.28125 7.54687,-4.96875 4.21875,-1.73438 9,-1.73438 4.6875,0 8.85938,1.73438 4.21875,1.73437 7.64062,5.0625 3.32813,3.23437 5.0625,7.45312 1.73438,4.17188 1.73438,8.85938 0,4.6875 -1.73438,8.85937 -1.73437,4.125 -5.0625,7.35938 -3.42187,3.375 -7.6875,5.15625 -4.21875,1.78125 -8.8125,1.78125 -4.73437,0 -9,-1.78125 -4.21875,-1.73438 -7.54687,-5.01563 -3.32813,-3.375 -5.0625,-7.5 -1.73438,-4.125 -1.73438,-8.85937 z" />
        <path
           id="path851"
           style="font-style:normal;font-variant:normal;font-weight:normal;font-stretch:normal;font-size:96px;font-family:'Futura Bk BT';-inkscape-font-specification:'Futura Bk BT';fill:#666666;fill-opacity:1"
           d="m 518.02734,277.01378 q 0,-7.21875 -3.9375,-11.625 -3.9375,-4.40625 -10.35937,-4.40625 -6.60938,0 -10.3125,4.07812 -3.70313,4.07813 -3.70313,11.39063 0,7.78125 3.70313,12 3.75,4.21875 10.59375,4.21875 6.5625,0 10.26562,-4.125 3.75,-4.17188 3.75,-11.53125 z m 7.125,-21.5625 v 42.14062 q 0,6.98438 -0.9375,9.9375 -0.9375,2.95313 -3.09375,5.29688 -3,3.23437 -7.35937,4.82812 -4.3125,1.59375 -9.9375,1.59375 -9.75,0 -15.23438,-4.45312 -5.4375,-4.45313 -5.67187,-12.60938 h 8.25 v 0.5625 q 0,4.82813 3.32812,7.45313 3.32813,2.625 9.42188,2.625 4.40625,0 7.5,-1.45313 3.14062,-1.40625 4.78125,-4.21875 0.98437,-1.59375 1.40625,-3.70312 0.42187,-2.10938 0.42187,-6.04688 v -3.375 -3.84375 q -2.48437,4.59375 -6.51562,7.07813 -4.03125,2.4375 -9.04688,2.4375 -9.23437,0 -14.90625,-6.28125 -5.625,-6.28125 -5.625,-16.6875 0,-10.5 5.48438,-16.64063 5.48437,-6.1875 14.67187,-6.1875 5.34375,0 9.375,2.4375 4.03125,2.39063 6.375,7.07813 v -7.96875 z" />
        <path
           id="path853"
           style="font-style:normal;font-variant:normal;font-weight:normal;font-stretch:normal;font-size:96px;font-family:'Futura Bk BT';-inkscape-font-specification:'Futura Bk BT';fill:#666666;fill-opacity:1"
           d="m 538.60547,234.7794 q 0,-2.20312 1.54687,-3.75 1.59375,-1.59375 3.84375,-1.59375 2.20313,0 3.75,1.59375 1.59375,1.59375 1.59375,3.84375 0,2.20313 -1.54687,3.75 -1.54688,1.54688 -3.79688,1.54688 -2.25,0 -3.84375,-1.54688 -1.54687,-1.54687 -1.54687,-3.84375 z m 1.73437,63.5625 v -42.89062 h 7.40625 v 42.89062 z" />
        <path
           id="path855"
           style="font-style:normal;font-variant:normal;font-weight:normal;font-stretch:normal;font-size:96px;font-family:'Futura Bk BT';-inkscape-font-specification:'Futura Bk BT';fill:#666666;fill-opacity:1"
           d="m 596.12109,288.17003 v 8.53125 q -2.90625,1.73437 -6.5625,2.57812 -3.60937,0.89063 -7.82812,0.89063 -9.9375,0 -16.03125,-6.28125 -6.04688,-6.32813 -6.04688,-16.59375 0,-10.3125 6.28125,-16.82813 6.28125,-6.5625 16.07813,-6.5625 3.5625,0 6.9375,0.75 3.42187,0.75 6.42187,2.20313 v 7.875 q -2.8125,-1.82813 -5.8125,-2.76563 -3,-0.98437 -6.09375,-0.98437 -7.21875,0 -11.57812,4.54687 -4.35938,4.5 -4.35938,12 0,6.60938 4.35938,11.0625 4.40625,4.45313 11.01562,4.45313 3.32813,0 6.51563,-1.17188 3.1875,-1.17187 6.70312,-3.70312 z" />
        <path
           id="path857"
           style="font-style:normal;font-variant:normal;font-weight:normal;font-stretch:normal;font-size:96px;font-family:'Futura Bk BT';-inkscape-font-specification:'Futura Bk BT';fill:#666666;fill-opacity:1"
           d="m 600.29297,298.3419 24.5625,-36.46875 h -23.0625 v -6.42187 h 36 l -24.5625,36.46875 h 24.375 v 6.42187 z" />
        <path
           id="path859"
           style="font-style:normal;font-variant:normal;font-weight:normal;font-stretch:normal;font-size:96px;font-family:'Futura Bk BT';-inkscape-font-specification:'Futura Bk BT';fill:#666666;fill-opacity:1"
           d="m 647.77734,298.3419 v -42.89062 h 7.17188 v 6.60937 q 2.76562,-4.125 6.65625,-6.14062 3.89062,-2.01563 9,-2.01563 7.59375,0 11.85937,4.03125 4.26563,4.03125 4.26563,11.20313 v 29.20312 h -7.5 v -25.26562 q 0,-6.51563 -2.76563,-9.65625 -2.71875,-3.1875 -8.4375,-3.1875 -3.28125,0 -6,1.21875 -2.67187,1.17187 -4.45312,3.375 -1.35938,1.6875 -1.96875,3.84375 -0.5625,2.15625 -0.5625,7.5 v 22.17187 z" />
        <path
           id="path861"
           style="font-style:normal;font-variant:normal;font-weight:normal;font-stretch:normal;font-size:96px;font-family:'Futura Bk BT';-inkscape-font-specification:'Futura Bk BT';fill:#666666;fill-opacity:1"
           d="m 734.02734,277.29503 q 0,-7.26563 -3.98437,-11.67188 -3.9375,-4.45312 -10.3125,-4.45312 -6.60938,0 -10.3125,4.07812 -3.70313,4.07813 -3.70313,11.39063 0,7.78125 3.70313,12 3.75,4.21875 10.59375,4.21875 6.5625,0 10.26562,-4.07813 3.75,-4.125 3.75,-11.48437 z m 7.125,-21.84375 v 42.89062 h -7.125 v -7.78125 q -2.57812,4.6875 -6.60937,7.17188 -3.98438,2.4375 -8.95313,2.4375 -9.23437,0 -14.90625,-6.32813 -5.625,-6.375 -5.625,-16.82812 0,-10.59375 5.48438,-16.82813 5.48437,-6.28125 14.67187,-6.28125 5.39063,0 9.32813,2.4375 3.98437,2.39063 6.42187,7.17188 v -8.0625 z" />
      </g>
      <path
         id="path1555-0"
         d="m -128.25376,480.6408 h -32.79559"
         style="fill:none;stroke:#666666;stroke-width:7.82735491;stroke-linecap:butt;stroke-linejoin:miter;stroke-miterlimit:4;stroke-dasharray:none;stroke-opacity:1" />
      <path
         id="path1209-2-5-0-7-9-6-1-8-8-0-7"
         d="m -93.533375,462.47887 3.572598,3.50846"
         style="fill:#ffffff;stroke:#ffffff;stroke-width:8.36792088;stroke-linecap:butt;stroke-linejoin:miter;stroke-miterlimit:4;stroke-dasharray:none;stroke-opacity:1" />
      <path
         id="path1209-2-5-0-7-9-6-1-8-8-0-7-5"
         d="m -130.16468,499.09804 3.5726,3.50848"
         style="fill:#ffffff;stroke:#ffffff;stroke-width:8.36792088;stroke-linecap:butt;stroke-linejoin:miter;stroke-miterlimit:4;stroke-dasharray:none;stroke-opacity:1" />
      <path
         id="path1209-2-5-0-7-9-6-1-8-8-0-7-7"
         d="m -126.08558,461.18291 -3.5726,3.50846"
         style="fill:#ffffff;stroke:#ffffff;stroke-width:8.36792088;stroke-linecap:butt;stroke-linejoin:miter;stroke-miterlimit:4;stroke-dasharray:none;stroke-opacity:1" />
      <path
         id="path1209-2-5-0-7-9-6-1-8-8-0-7-7-8"
         d="m -89.617585,497.7956 -3.572598,3.50848"
         style="fill:#ffffff;stroke:#ffffff;stroke-width:8.36792088;stroke-linecap:butt;stroke-linejoin:miter;stroke-miterlimit:4;stroke-dasharray:none;stroke-opacity:1" />
    </g>
  </g>
</svg>
